<svg xmlns="http://www.w3.org/2000/svg" viewBox="0 0 602 182" width="602" height="182">
    <path fill="#FF9900" d="M374.006,142.184L374.006,142.184l-22.223-2.12c-0.396-0.052-0.721-0.396-0.721-0.842v-22.45 c0-0.446,0.324-0.842,0.721-0.842h22.223c0.396,0,0.721,0.396,0.721,0.842v22.45C374.727,141.788,374.402,142.184,374.006,142.184z"/>
    <path fill="#FF9900" d="M181.906,99.017c-19.199,0-32.401,8.317-32.401,8.317V71.684c0-0.446-0.324-0.842-0.721-0.842h-22.223 c-0.396,0-0.721,0.396-0.721,0.842v103.921c0,0.446,0.324,0.842,0.721,0.842h22.223c0.396,0,0.721-0.396,0.721-0.842v-8.316 c0,0,13.202,8.316,32.401,8.316c24.866,0,45.927-20.159,45.927-45.027C227.833,119.176,206.772,99.017,181.906,99.017z"/>
</svg>